<svg xmlns="http://www.w3.org/2000/svg" viewBox="0 0 128 128" role="img" aria-label="Colo de Mãe icon">
  <defs>
    <linearGradient id="heartGradient" x1="0" x2="1" y1="0" y2="1">
      <stop offset="0%" stop-color="#F7D7E6"/>
      <stop offset="100%" stop-color="#C2A4E8"/>
    </linearGradient>
  </defs>
  <rect width="128" height="128" rx="28" fill="#FFF8F5"/>
  <circle cx="64" cy="64" r="52" fill="url(#heartGradient)"/>
  <path d="M64 92 C64 92 28 71 28 47 C28 34 39 26 51 26 C58 26 63 29 64 32 C65 29 70 26 77 26 C89 26 100 34 100 47 C100 71 64 92 64 92 Z" fill="#D97AAC"/>
  <path d="M49 38 C45 32 38 30 33 35 C29 40 29 48 33 53 L54 74 L75 53 C79 48 79 40 75 35 C70 30 63 32 59 38" fill="#FFFFFF" opacity="0.50"/>
</svg>
